<?xml version="1.0" encoding="UTF-8"?>
<svg width="60px" height="72px" viewBox="0 0 60 72" version="1.1" xmlns="http://www.w3.org/2000/svg" xmlns:xlink="http://www.w3.org/1999/xlink">
    <!-- Generator: Sketch 48.2 (47327) - http://www.bohemiancoding.com/sketch -->
    <title>2fa-good</title>
    <desc>Created with Sketch.</desc>
    <defs></defs>
    <g id="2fa-confirm" stroke="none" stroke-width="1" fill="none" fill-rule="evenodd" transform="translate(-631.000000, -227.000000)" stroke-linecap="round" stroke-linejoin="round">
        <g id="dialog" transform="translate(364.000000, 143.000000)" stroke="#02B999" stroke-width="5.25">
            <g id="2fa-good" transform="translate(268.000000, 85.000000)">
                <path d="M53.2875,27.45372 L4.7125,27.45372 C3.1088,27.45372 1.8125,28.75292 1.8125,30.35372 L1.8125,53.28692 C1.8125,61.29382 8.3027,67.78692 16.3125,67.78692 L41.6875,67.78692 C49.6973,67.78692 56.1875,61.29382 56.1875,53.28692 L56.1875,30.35372 C56.1875,28.75292 54.8912,27.45372 53.2875,27.45372 Z" id="Stroke-1"></path>
                <path d="M43.75781,27.45372 L43.75781,16.19592 C43.75781,8.24992 37.15161,1.81192 28.99971,1.81192 C20.85071,1.81192 14.24161,8.24992 14.24161,16.19592 L14.24161,27.45372" id="Stroke-3"></path>
                <path d="M29.1247,51.7157 L28.8753,51.7157 C25.5809,51.7157 22.9129,49.0477 22.9129,45.7533 C22.9129,42.4618 25.5809,39.7938 28.8753,39.7938 L29.1247,39.7938 C32.4191,39.7938 35.0871,42.4618 35.0871,45.7533 C35.0871,49.0477 32.4191,51.7157 29.1247,51.7157 Z" id="Stroke-5"></path>
                <path d="M29,51.7157 L29,58.8062" id="Stroke-7"></path>
            </g>
        </g>
    </g>
</svg>